<svg width="82" height="34" viewBox="0 0 82 34" fill="none" xmlns="http://www.w3.org/2000/svg">
<path d="M33.2491 17.1529C33.9167 17.3037 34.4443 17.6375 34.832 18.1544C35.2304 18.6605 35.4296 19.2419 35.4296 19.8988C35.4296 20.8679 35.0958 21.6271 34.4282 22.1762C33.7605 22.7254 32.8237 23 31.6177 23H25.9806V11.6128H31.44C32.603 11.6128 33.5129 11.8712 34.1697 12.3881C34.8373 12.9049 35.1711 13.6318 35.1711 14.5686C35.1711 15.2362 34.9935 15.7962 34.6381 16.2484C34.2936 16.6899 33.8305 16.9914 33.2491 17.1529ZM29.1464 16.1354H30.7455C31.5423 16.1354 31.9407 15.8069 31.9407 15.1501C31.9407 14.4717 31.5423 14.1325 30.7455 14.1325H29.1464V16.1354ZM30.9878 20.448C31.7846 20.448 32.183 20.1142 32.183 19.4465C32.183 19.102 32.0753 18.8381 31.86 18.6551C31.6554 18.472 31.3593 18.3805 30.9716 18.3805H29.1464V20.448H30.9878ZM46.0883 13.9387V23H42.9064V21.7078C42.6372 22.117 42.2657 22.4508 41.7919 22.7093C41.3181 22.9569 40.7743 23.0808 40.1605 23.0808C39.1052 23.0808 38.2707 22.7362 37.6569 22.047C37.0539 21.3471 36.7524 20.3995 36.7524 19.2043V13.9387H39.9021V18.8005C39.9021 19.3173 40.0367 19.7265 40.3059 20.028C40.5858 20.3188 40.952 20.4641 41.4042 20.4641C41.8672 20.4641 42.2334 20.3188 42.5026 20.028C42.7718 19.7265 42.9064 19.3173 42.9064 18.8005V13.9387H46.0883ZM53.2364 20.3026V23H51.8635C49.5483 23 48.3908 21.8532 48.3908 19.5596V16.5715H47.2763V13.9387H48.3908V11.742H51.5727V13.9387H53.2202V16.5715H51.5727V19.6081C51.5727 19.8557 51.6266 20.0334 51.7342 20.1411C51.8527 20.2488 52.0465 20.3026 52.3157 20.3026H53.2364ZM60.0348 20.3026V23H58.6619C56.3467 23 55.1892 21.8532 55.1892 19.5596V16.5715H54.0747V13.9387H55.1892V11.742H58.3711V13.9387H60.0186V16.5715H58.3711V19.6081C58.3711 19.8557 58.425 20.0334 58.5326 20.1411C58.6511 20.2488 58.8449 20.3026 59.1141 20.3026H60.0348ZM65.7025 23.1131C64.798 23.1131 63.985 22.9246 63.2636 22.5477C62.5529 22.1709 61.9929 21.6325 61.5838 20.9325C61.1746 20.2326 60.97 19.4088 60.97 18.4613C60.97 17.5244 61.1746 16.7061 61.5838 16.0061C62.0037 15.3062 62.569 14.7678 63.2797 14.3909C64.0012 14.014 64.8142 13.8256 65.7187 13.8256C66.6232 13.8256 67.4308 14.014 68.1415 14.3909C68.863 14.7678 69.4283 15.3062 69.8375 16.0061C70.2574 16.7061 70.4674 17.5244 70.4674 18.4613C70.4674 19.3981 70.2574 20.2218 69.8375 20.9325C69.4283 21.6325 68.863 22.1709 68.1415 22.5477C67.42 22.9246 66.6071 23.1131 65.7025 23.1131ZM65.7025 20.3672C66.144 20.3672 66.5101 20.2057 66.8009 19.8826C67.1024 19.5488 67.2531 19.075 67.2531 18.4613C67.2531 17.8475 67.1024 17.3791 66.8009 17.056C66.5101 16.733 66.1494 16.5715 65.7187 16.5715C65.288 16.5715 64.9272 16.733 64.6365 17.056C64.3458 17.3791 64.2004 17.8475 64.2004 18.4613C64.2004 19.0858 64.3404 19.5596 64.6203 19.8826C64.9003 20.2057 65.261 20.3672 65.7025 20.3672ZM77.6832 13.8579C78.7277 13.8579 79.5569 14.2079 80.1707 14.9078C80.7844 15.597 81.0913 16.5338 81.0913 17.7183V23H77.9255V18.1382C77.9255 17.6213 77.7909 17.2175 77.5217 16.9268C77.2525 16.6253 76.8918 16.4746 76.4395 16.4746C75.9657 16.4746 75.5942 16.6253 75.325 16.9268C75.0558 17.2175 74.9212 17.6213 74.9212 18.1382V23H71.7554V13.9387H74.9212V15.2308C75.2012 14.8217 75.5781 14.4932 76.0519 14.2456C76.5257 13.9871 77.0695 13.8579 77.6832 13.8579Z" fill="#4E8CFF"/>
<path d="M14 2V32" stroke="#4E8CFF" stroke-width="3.91" stroke-linecap="round"/>
<path d="M7.21272 26.2445H4.60636C3.16691 26.2445 2 25.0776 2 23.6382V10.6064C2 9.16691 3.16691 8 4.60636 8H7.21272" stroke="#4E8CFF" stroke-width="3.90954"/>
</svg>
