<svg width="153" height="39" viewBox="0 0 153 39" fill="none" xmlns="http://www.w3.org/2000/svg">
<g clip-path="url(#clip0_1_200)">
<path d="M31.9708 0H6.08967C2.72644 0 0 2.72644 0 6.08967V31.9708C0 35.334 2.72644 38.0604 6.08967 38.0604H31.9708C35.334 38.0604 38.0604 35.334 38.0604 31.9708V6.08967C38.0604 2.72644 35.334 0 31.9708 0Z" fill="#DE483A"/>
<path d="M8.04545 17.833L15.6266 13.4703L15.6361 13.4643L23.448 8.96845C23.7775 8.77815 23.793 8.19535 23.4242 7.98364L23.1661 7.83615C22.7891 7.62206 22.3015 7.34374 22.0933 7.22243C21.911 7.12313 21.7062 7.0723 21.4985 7.07479C21.2909 7.07729 21.0874 7.13304 20.9075 7.2367C20.7231 7.34374 8.41773 14.4182 8.0062 14.6525C7.76371 14.7912 7.48923 14.8641 7.20991 14.8641C6.93059 14.8641 6.65611 14.7912 6.41361 14.6525L-0.0852051 10.8762V14.0864L-0.0185993 14.1244C1.60373 15.07 5.44307 17.3061 6.38269 17.8353C6.95241 18.1565 7.49715 18.1493 8.04545 17.833Z" fill="white"/>
<path d="M8.04545 24.246L15.6171 19.8881L15.6456 19.8715L23.448 15.3815C23.7775 15.1912 23.793 14.6072 23.4242 14.3967L23.1661 14.2492C22.7903 14.0351 22.3015 13.7568 22.0933 13.6355C21.911 13.5362 21.7062 13.4854 21.4985 13.4879C21.2909 13.4904 21.0874 13.5461 20.9075 13.6498C20.7231 13.7556 8.41773 20.8313 8.0062 21.0644C7.76371 21.2031 7.48923 21.276 7.20991 21.276C6.93059 21.276 6.65611 21.2031 6.41361 21.0644C6.02587 20.8408 -0.0852051 17.2893 -0.0852051 17.2893V20.4983L-0.0185993 20.5375C1.60492 21.4831 5.44307 23.718 6.38269 24.2484C6.95241 24.5696 7.49715 24.5624 8.04545 24.246Z" fill="white"/>
<path d="M15.6278 26.2945L8.04545 30.6584C7.49715 30.9747 6.95122 30.9819 6.38269 30.6607C5.44307 30.1303 1.60492 27.8954 -0.0185993 26.9499L-0.0852051 26.9106V23.7016L6.41361 27.4768C6.90483 27.761 7.5138 27.7574 8.0062 27.4768C8.41773 27.2436 20.7231 20.168 20.9075 20.0609C21.0874 19.9573 21.2909 19.9015 21.4985 19.899C21.7062 19.8965 21.911 19.9473 22.0933 20.0466C22.536 20.3027 22.9801 20.5564 23.4254 20.8079C23.7941 21.0196 23.7775 21.6036 23.448 21.7939L15.6278 26.2945Z" fill="white"/>
<path d="M66.1899 22.2772C66.1899 22.8897 66.2958 23.4844 66.5039 24.0518C66.7133 24.6238 67.0177 25.127 67.4245 25.5658C67.8313 26.0059 68.3177 26.3556 68.8875 26.6173C69.4584 26.8801 70.1066 27.011 70.8285 27.011C71.5517 27.011 72.1987 26.8801 72.7684 26.6185C73.3179 26.3727 73.8123 26.0188 74.222 25.5778C74.6317 25.1368 74.9484 24.6178 75.1532 24.0518C75.3589 23.4844 75.4624 22.8897 75.4624 22.2772C75.4624 21.6647 75.3589 21.07 75.1532 20.5002C74.9495 19.9403 74.6366 19.4264 74.2326 18.9885C73.8192 18.5445 73.322 18.1868 72.7696 17.9359C72.1591 17.6644 71.4967 17.5292 70.8285 17.5399C70.1066 17.5399 69.4584 17.6743 68.8886 17.9359C68.3177 18.1988 67.8313 18.5496 67.4257 18.9885C67.0204 19.4252 66.7069 19.9389 66.5039 20.4991C66.2958 21.07 66.1899 21.6647 66.1899 22.2772ZM62.2459 22.2772C62.2459 21.0283 62.4719 19.8925 62.9203 18.8732C63.3455 17.8871 63.9666 16.9977 64.746 16.2589C65.5338 15.5228 66.4611 14.9521 67.4733 14.5807C68.547 14.1834 69.6837 13.9831 70.8285 13.9895C72.012 13.9895 73.13 14.187 74.1826 14.5807C75.1947 14.9525 76.1223 15.5227 76.9111 16.2577C77.69 16.9973 78.311 17.887 78.7368 18.8732C79.1864 19.8925 79.4112 21.0271 79.4112 22.2772C79.4112 23.526 79.1852 24.6619 78.7368 25.6812C78.3109 26.6669 77.6899 27.5562 76.9111 28.2955C76.1231 29.0317 75.1953 29.602 74.1826 29.9725C73.1101 30.3712 71.974 30.5715 70.8297 30.5637C69.6847 30.5715 68.5478 30.3712 67.4745 29.9725C66.4619 29.6031 65.5343 29.0331 64.7472 28.2967C63.9678 27.5579 63.3467 26.6685 62.9215 25.6824C62.4719 24.6631 62.2471 23.5284 62.2471 22.2784L62.2459 22.2772ZM85.1963 22.2819C85.1963 22.8945 85.2998 23.4892 85.5092 24.0565C85.7173 24.6286 86.0218 25.1317 86.4286 25.5706C86.8353 26.0107 87.323 26.3604 87.8927 26.622C88.4636 26.8837 89.1106 27.0157 89.8326 27.0157C90.5557 27.0157 91.2028 26.8849 91.7737 26.6232C92.3234 26.3778 92.8179 26.024 93.2277 25.583C93.6375 25.1419 93.954 24.6228 94.1584 24.0565C94.3644 23.4876 94.4691 22.887 94.4676 22.2819C94.4676 21.6694 94.3642 21.0747 94.1584 20.505C93.9531 19.9395 93.6362 19.4211 93.2266 18.9806C92.8169 18.54 92.3228 18.1864 91.7737 17.9407C91.1631 17.6691 90.5007 17.534 89.8326 17.5446C89.1106 17.5446 88.4624 17.679 87.8939 17.9407C87.3406 18.1912 86.8426 18.5489 86.4286 18.9933C86.023 19.4322 85.7173 19.9353 85.5092 20.5038C85.2998 21.0747 85.1963 21.6694 85.1963 22.2819ZM94.5354 27.8055H94.4676C93.8979 28.7712 93.1331 29.473 92.1674 29.9107C91.1856 30.3516 90.1202 30.5755 89.044 30.5672C87.8154 30.5672 86.7259 30.3555 85.7708 29.9273C84.8413 29.5167 84.0073 28.9172 83.3219 28.167C82.6318 27.4052 82.1055 26.5097 81.7757 25.5361C81.4188 24.4887 81.2415 23.3885 81.2512 22.2819C81.2411 21.1717 81.4305 20.0687 81.8102 19.0254C82.1586 18.0573 82.6882 17.1644 83.3706 16.3945C84.0446 15.6466 84.8674 15.0479 85.7863 14.6366C86.7307 14.2084 87.7607 13.9943 88.8787 13.9943C89.6244 13.9943 90.2822 14.0716 90.8531 14.2238C91.4228 14.3785 91.9259 14.5747 92.3636 14.8185C93.0945 15.2024 93.7336 15.7401 94.2369 16.3945H94.3368V7.69886C94.3368 7.30517 94.6496 6.84012 95.1979 6.84012H97.4256C97.9418 6.84012 98.2844 7.27305 98.2844 7.69886V29.3136C98.2844 29.8631 97.8193 30.1735 97.4256 30.1735H95.3977C95.1705 30.1714 94.9531 30.0805 94.792 29.9203C94.6309 29.76 94.5388 29.5432 94.5354 29.316V27.8055ZM104.853 22.2772C104.853 22.8897 104.958 23.4844 105.167 24.0518C105.376 24.6238 105.681 25.127 106.088 25.5658C106.501 26.0097 106.998 26.3671 107.551 26.6173C108.122 26.8801 108.769 27.011 109.492 27.011C110.214 27.011 110.862 26.8801 111.432 26.6185C111.982 26.373 112.476 26.0192 112.886 25.5781C113.296 25.1371 113.612 24.618 113.817 24.0518C114.022 23.4844 114.126 22.8897 114.126 22.2772C114.126 21.6647 114.022 21.07 113.817 20.5002C113.611 19.9348 113.294 19.4165 112.885 18.9759C112.475 18.5354 111.981 18.1817 111.432 17.9359C110.822 17.6646 110.16 17.5294 109.492 17.5399C108.769 17.5399 108.121 17.6743 107.551 17.9359C106.981 18.1988 106.495 18.5496 106.088 18.9885C105.681 19.4274 105.376 19.9305 105.167 20.4991C104.958 21.07 104.853 21.6647 104.853 22.2772ZM100.909 22.2772C100.909 21.0283 101.134 19.8925 101.584 18.8732C102.009 17.8871 102.629 16.9977 103.408 16.2589C104.196 15.5228 105.123 14.9521 106.136 14.5807C107.21 14.1832 108.347 13.983 109.492 13.9895C110.674 13.9895 111.793 14.187 112.845 14.5807C113.857 14.9524 114.785 15.5225 115.575 16.2577C116.353 16.9974 116.974 17.8871 117.399 18.8732C117.849 19.8925 118.075 21.0271 118.075 22.2772C118.075 23.526 117.849 24.6619 117.4 25.6812C116.974 26.6669 116.353 27.5562 115.575 28.2955C114.786 29.0314 113.858 29.6013 112.845 29.9713C111.772 30.3702 110.635 30.5705 109.491 30.5625C108.346 30.5702 107.21 30.3699 106.137 29.9713C105.124 29.602 104.196 29.032 103.408 28.2955C102.629 27.5567 102.009 26.6672 101.584 25.6812C101.134 24.6619 100.909 23.5272 100.909 22.2772ZM120.063 9.02502C120.063 8.3887 120.299 7.83682 120.77 7.36226C121.243 6.89245 121.84 6.65576 122.562 6.65576C123.285 6.65576 123.895 6.88175 124.388 7.33133C124.88 7.78092 125.129 8.34469 125.129 9.02502C125.136 9.34419 125.073 9.66099 124.945 9.95346C124.817 10.2459 124.627 10.5071 124.388 10.7187C123.895 11.1683 123.285 11.3931 122.562 11.3931C121.84 11.3931 121.243 11.1576 120.77 10.6842C120.299 10.2132 120.063 9.66135 120.063 9.02502ZM136.352 18.7566C135.958 18.7566 135.668 18.4593 135.619 18.3296C135.291 17.4697 134.246 17.1474 133.401 17.1474C132.07 17.1474 131.026 17.7646 131.026 18.8244C131.026 19.8508 132.037 20.0614 132.661 20.2505C133.346 20.4574 134.656 20.7429 135.378 20.913C136.092 21.0788 136.782 21.3329 137.433 21.6694C139.528 22.7577 139.826 24.4692 139.826 25.4992C139.826 29.3017 136.059 30.5625 133.444 30.5625C131.428 30.5625 127.641 30.2568 126.809 26.4139C126.729 26.0392 127.059 25.4647 127.667 25.4647H129.846C130.274 25.4647 130.563 25.7776 130.648 26.0238C130.927 26.7957 131.817 27.3797 133.318 27.3797C134.927 27.3797 135.879 26.741 135.879 25.8917C135.879 25.3422 135.568 24.8546 135.161 24.5787C133.941 23.7508 130.922 23.6581 129.283 22.7851C128.655 22.452 127.081 21.6884 127.081 19.0872C127.081 15.5012 130.341 13.9895 133.205 13.9895C137.428 13.9895 138.978 16.6573 139.153 17.6469C139.249 18.1928 138.944 18.7578 138.33 18.7578L136.352 18.7566ZM140.15 16.8048V15.1718C140.15 14.7829 140.457 14.3142 141.002 14.3142H143.106V10.306C143.106 9.87781 143.397 9.61615 143.617 9.521L145.865 8.53975C146.521 8.26976 147.053 8.81093 147.053 9.33189V14.3142H150.535C151.074 14.3142 151.394 14.784 151.394 15.1718V16.8072C151.388 17.0328 151.295 17.2474 151.136 17.4072C150.976 17.567 150.762 17.6599 150.537 17.6671H147.053V24.5751C147.053 25.3636 147.031 25.9809 147.332 26.4365C147.61 26.854 148.015 27.0098 148.827 27.0098C149.061 27.0098 149.269 26.9705 149.445 26.911C149.633 26.8393 149.842 26.838 150.031 26.9072C150.221 26.9764 150.379 27.1116 150.477 27.2881C150.734 27.7852 151.028 28.3312 151.234 28.7225C151.461 29.1519 151.278 29.7037 150.864 29.9035C150.196 30.2282 149.271 30.4911 148.002 30.4911C146.951 30.4911 146.355 30.3769 145.689 30.1462C145.032 29.9047 144.451 29.4944 144.003 28.9568C143.618 28.4858 143.428 27.8554 143.285 27.1537C143.14 26.4519 143.106 25.6027 143.106 24.6798V17.6671H141.007C140.457 17.6671 140.15 17.1914 140.15 16.8048ZM49.8691 16.8048V15.1718C49.8691 14.7829 50.1772 14.3142 50.7219 14.3142H53.1257V10.306C53.1257 9.87781 53.4171 9.61615 53.6371 9.521L55.8851 8.53975C56.5416 8.26976 57.0733 8.81093 57.0733 9.33189V14.3142H60.5558C61.0934 14.3142 61.4145 14.784 61.4145 15.1718V16.8072C61.408 17.033 61.3154 17.2477 61.1558 17.4076C60.9962 17.5674 60.7816 17.6602 60.5558 17.6671H57.0733V24.5751C57.0733 25.3636 57.0519 25.9809 57.3528 26.4365C57.6287 26.854 58.0343 27.0098 58.8478 27.0098C59.081 27.0098 59.2879 26.9705 59.4651 26.911C59.6536 26.8396 59.8616 26.8384 60.0509 26.9077C60.2402 26.9769 60.3983 27.1119 60.4963 27.2881C60.7544 27.7852 61.0482 28.3312 61.254 28.7225C61.4799 29.1519 61.298 29.7037 60.8841 29.9035C60.2156 30.2282 59.2903 30.4911 58.0224 30.4911C56.971 30.4911 56.3751 30.3769 55.709 30.1462C55.0522 29.9047 54.4705 29.4945 54.0225 28.9568C53.6371 28.4858 53.4468 27.8554 53.3053 27.1537C53.1602 26.4519 53.1269 25.6027 53.1269 24.6798V17.6671H50.7279C50.1772 17.6671 49.8691 17.1914 49.8691 16.8048ZM121.455 30.1747H123.686C123.914 30.1741 124.132 30.0832 124.293 29.922C124.453 29.7608 124.544 29.5425 124.544 29.3148V15.173C124.543 14.9455 124.453 14.7275 124.292 14.5665C124.132 14.4056 123.914 14.3149 123.686 14.3142H121.455C121.227 14.3152 121.01 14.406 120.849 14.5669C120.688 14.7277 120.598 14.9456 120.597 15.173V29.3148C120.597 29.7882 120.984 30.1735 121.455 30.1735V30.1747Z" fill="#DE483A"/>
</g>
<defs>
<clipPath id="clip0_1_200">
<rect width="152.242" height="38.0604" fill="white"/>
</clipPath>
</defs>
</svg>
